<?xml version="1.0" encoding="UTF-8"?>
<svg width="80px" height="37px" viewBox="0 0 80 37" version="1.1" xmlns="http://www.w3.org/2000/svg" xmlns:xlink="http://www.w3.org/1999/xlink">
    <!-- Generator: Sketch 41 (35326) - http://www.bohemiancoding.com/sketch -->
    <title>1962</title>
    <desc>Created with Sketch.</desc>
    <defs>
        <polygon id="path-1" points="79.8123944 11.8377856 79.8123944 0.18774921 0 0.18774921 0 11.8377856 0 23.487822 79.8123944 23.487822"></polygon>
    </defs>
    <g id="Page-1" stroke="none" stroke-width="1" fill="none" fill-rule="evenodd">
        <g id="Artboard-Copy-3" transform="translate(-1295.000000, -239.000000)">
            <g id="1962" transform="translate(1295.000000, 239.000000)">
                <g id="Group-3" transform="translate(0.000000, 0.014345)">
                    <mask id="mask-2" fill="white">
                        <use xlink:href="#path-1"></use>
                    </mask>
                    <g id="Clip-2"></g>
                    <path d="M0,5.19414975 L0,23.1728331 L9.09690141,23.1728331 L9.09690141,0.187692659 L8.34422535,0.187692659 L0,5.19414975 Z M24.0405634,12.1844147 L24.3228169,12.1844147 C24.4478873,15.9942534 23.256338,16.9386545 21.3115493,16.9386545 C19.868169,16.9386545 19.1470423,16.4347854 18.6450704,15.3642756 L9.86197183,15.3642756 C9.86197183,19.9929722 13.7830986,23.487822 21.6878873,23.487822 C29.2788732,23.487822 33.0428169,18.7019137 33.0428169,11.0194648 C33.0428169,4.46973186 29.435493,0.187692659 20.8405634,0.187692659 C13.0298592,0.187692659 9.51661972,3.65143937 9.51661972,8.18513038 C9.51661972,12.3099579 12.1515493,14.2937658 17.6101408,14.2937658 C21.0602817,14.2937658 23.0366197,13.223256 24.0405634,12.1844147 L24.0405634,12.1844147 Z M23.6326761,8.12235881 C23.6326761,9.57062906 22.6287324,10.4211556 21.1233803,10.4211556 C19.5233803,10.4211556 18.6135211,9.57062906 18.6135211,8.12235881 C18.6135211,6.64242001 19.5233803,5.69801886 21.1233803,5.69801886 C22.6287324,5.69801886 23.6326761,6.64242001 23.6326761,8.12235881 L23.6326761,8.12235881 Z M42.4247887,11.4916654 L42.1425352,11.4916654 C42.1425352,8.37457612 43.5228169,7.051849 45.5301408,7.051849 C46.8478873,7.051849 47.7261972,7.55571812 47.9769014,8.59455938 L56.7915493,8.59455938 C56.7915493,2.89535295 51.9605634,0.187692659 46.1577465,0.187692659 C37.1864789,0.187692659 33.4219718,4.97360098 33.4219718,12.6566153 C33.4219718,19.2057828 37.0292958,23.487822 45.9695775,23.487822 C53.4349296,23.487822 56.948169,20.0246408 56.948169,15.4903843 C56.948169,11.9321974 54.3132394,9.38174884 48.8552113,9.38174884 C45.6242254,9.38174884 43.4287324,10.4522586 42.4247887,11.4916654 L42.4247887,11.4916654 Z M42.8326761,15.5531558 C42.8326761,14.1048856 43.8366197,13.2549245 45.3419718,13.2549245 C46.9419718,13.2549245 47.851831,14.1048856 47.851831,15.5531558 C47.851831,17.0330946 46.9419718,17.9774958 45.3419718,17.9774958 C43.8366197,17.9774958 42.8326761,17.0330946 42.8326761,15.5531558 L42.8326761,15.5531558 Z M79.8123944,23.1728331 L79.8123944,15.4587157 L70.6839437,15.4587157 C76.1419718,12.782724 79.5301408,10.6100358 79.5301408,7.17795766 C79.5301408,2.98979306 75.7030986,0.187692659 68.3002817,0.187692659 C60.771831,0.187692659 57.1014085,3.74587949 57.1014085,7.58738666 C57.1014085,11.6805456 60.583662,13.5065764 66.2298592,13.9787769 L58.2935211,18.5130334 L58.2935211,23.1728331 L79.8123944,23.1728331 Z M66.6687324,10.6100358 C64.1594366,10.6100358 62.936338,9.53952603 62.936338,8.46901623 C62.936338,7.39850643 64.1594366,6.32743112 66.6687324,6.32743112 C69.3667606,6.32743112 70.4016901,7.39850643 70.4016901,8.46901623 C70.4016901,9.53952603 69.3667606,10.6100358 66.6687324,10.6100358 L66.6687324,10.6100358 Z" id="Fill-1" fill="#FFFFFF" mask="url(#mask-2)"></path>
                </g>
                <path d="M1.97684507,33.2146256 L2.74923944,33.2146256 L2.74923944,34.5452699 L1.50416901,34.5452699 L1.97684507,33.2146256 Z M3.67149296,36.7722469 L5.14078873,36.7722469 L5.14078873,34.5452699 L4.42022535,34.5452699 L4.42022535,31.7974584 L2.01740845,31.7974584 L1.04895775,34.5452699 L0.0867042254,34.5452699 L0.0867042254,36.7722469 L1.556,36.7722469 L1.59656338,35.9624371 L3.63092958,35.9624371 L3.67149296,36.7722469 Z M8.58191549,31.7974584 L8.58191549,33.1337577 L7.40050704,33.1337577 L7.40050704,31.7974584 L5.72952113,31.7974584 L5.72952113,35.9624371 L7.40050704,35.9624371 L7.40050704,34.550925 L8.58191549,34.550925 L8.58191549,35.9624371 L10.2534648,35.9624371 L10.2534648,31.7974584 L8.58191549,31.7974584 Z M15.1058592,33.9090715 L13.4579718,33.9090715 C13.4461408,34.232543 13.3193803,34.4988981 13.0027606,34.4988981 C12.800507,34.4988981 12.6968451,34.3891892 12.6968451,34.2500738 C12.6968451,34.1053034 12.812338,34.0244355 12.9565634,34.0244355 L12.9565634,33.5850345 C12.4551549,33.5788139 12.0743099,33.3418653 12.0743099,32.9081194 C12.0743099,32.4393119 12.4664225,32.1735223 12.9734648,32.1735223 C13.4810704,32.1735223 13.8726197,32.444967 13.8726197,32.9137745 L14.3683944,32.9137745 C14.3683944,32.2368594 13.8151549,31.7392109 12.9734648,31.7392109 C12.132338,31.7392109 11.5903662,32.2255492 11.5790986,32.8905886 C11.0776901,33.150723 10.8179718,33.6602472 10.8179718,34.2557289 C10.8179718,35.285522 11.6827606,36.0376499 12.9621972,36.0376499 C14.3740282,36.0376499 15.1058592,35.0830696 15.1058592,33.9090715 L15.1058592,33.9090715 Z M17.6157183,35.9624371 C18.8664225,35.9624371 19.5869859,35.6672411 19.5869859,34.7132262 C19.5869859,34.2444187 19.276,33.9379125 18.9244507,33.7699561 C19.2298028,33.5906896 19.4483944,33.2841833 19.4483944,32.9024643 C19.4483944,32.1791774 18.7802254,31.7974584 17.800507,31.7974584 L15.6100845,31.7974584 L15.6100845,35.9624371 L17.6157183,35.9624371 Z M18.1751549,33.8338587 C18.1751549,34.2268879 17.904169,34.5164289 17.3971268,34.5164289 L17.2816338,34.5164289 L17.2816338,33.2434666 L17.4027606,33.2434666 C17.892338,33.2434666 18.1751549,33.4346089 18.1751549,33.8338587 L18.1751549,33.8338587 Z M23.0619155,31.7974584 L23.0619155,33.1337577 L21.880507,33.1337577 L21.880507,31.7974584 L20.2095211,31.7974584 L20.2095211,35.9624371 L21.880507,35.9624371 L21.880507,34.550925 L23.0619155,34.550925 L23.0619155,35.9624371 L24.7334648,35.9624371 L24.7334648,31.7974584 L23.0619155,31.7974584 Z M27.5098028,33.6834331 L27.5098028,31.7974584 L25.5385352,31.7974584 L25.5385352,36.0783666 L25.6709296,36.0783666 L27.5098028,34.0821175 L27.5098028,35.9624371 L29.480507,35.9624371 L29.480507,31.6815289 L29.3481127,31.6815289 L27.5098028,33.6834331 Z M33.1244507,35.9624371 L35.1469859,35.9624371 L33.5852958,33.6772125 L34.939662,31.7974584 L33.1069859,31.7974584 L31.9543099,33.3938922 L31.9543099,31.7974584 L30.2827606,31.7974584 L30.2827606,35.9624371 L31.9543099,35.9624371 L31.9543099,34.2557289 L33.1244507,35.9624371 Z" id="Fill-4" fill="#FFFFFF"></path>
                <path d="M3.25628169,26.457181 L3.25628169,27.7934803 L2.07487324,27.7934803 L2.07487324,26.457181 L0.403323944,26.457181 L0.403323944,30.6227252 L2.07487324,30.6227252 L2.07487324,29.2106475 L3.25628169,29.2106475 L3.25628169,30.6227252 L4.92783099,30.6227252 L4.92783099,26.457181 L3.25628169,26.457181 Z M6.3188169,30.6804072 C6.68219718,30.6804072 6.97571831,30.3852111 6.97571831,30.0210229 C6.97571831,29.6562691 6.68219718,29.3610731 6.3188169,29.3610731 C5.9616338,29.3610731 5.66191549,29.6562691 5.66191549,30.0210229 C5.66191549,30.3852111 5.9616338,30.6804072 6.3188169,30.6804072 L6.3188169,30.6804072 Z M12.0072676,30.6227252 L14.0303662,30.6227252 L12.4681127,28.3375006 L13.8224789,26.457181 L11.9898028,26.457181 L10.8371268,28.0536147 L10.8371268,26.457181 L9.16614085,26.457181 L9.16614085,30.6227252 L10.8371268,30.6227252 L10.8371268,28.916017 L12.0072676,30.6227252 Z M13.9965634,28.5399531 C13.9965634,29.6913307 14.8033239,30.6804072 16.5154366,30.6804072 C18.2269859,30.6804072 19.0337465,29.6913307 19.0337465,28.5399531 C19.0337465,27.3885754 18.2269859,26.399499 16.5154366,26.399499 C14.8033239,26.399499 13.9965634,27.3885754 13.9965634,28.5399531 L13.9965634,28.5399531 Z M15.6968451,28.5399531 C15.6968451,28.215916 15.9616338,27.8743482 16.5154366,27.8743482 C17.0686761,27.8743482 17.3334648,28.215916 17.3334648,28.5399531 C17.3334648,28.916017 17.0686761,29.2049924 16.5154366,29.2049924 C15.9616338,29.2049924 15.6968451,28.916017 15.6968451,28.5399531 L15.6968451,28.5399531 Z M21.7272676,30.6804072 C23.3007887,30.6804072 24.0269859,30.2579714 24.0213521,29.4481616 C24.0157183,28.8408042 23.5255775,28.5569184 22.8861408,28.4647403 C23.5024789,28.3431557 23.8827606,28.0309944 23.8827606,27.5797176 C23.8827606,26.8507757 23.1334648,26.399499 21.767831,26.399499 C20.1886761,26.399499 19.4799437,27.134096 19.4450141,28.1288275 L21.076,28.1288275 C21.0990986,27.9094098 21.2895211,27.7589842 21.6816338,27.7589842 C22.0213521,27.7589842 22.1830423,27.8573829 22.1830423,28.0134636 C22.1830423,28.1288275 22.1137465,28.244757 21.704169,28.244757 L21.2433239,28.244757 L21.2433239,28.7887773 L21.600507,28.7887773 C22.1019155,28.7887773 22.292338,28.8984862 22.292338,29.0720977 C22.292338,29.2513642 22.1081127,29.3209219 21.7447324,29.3209219 C21.2895211,29.3209219 21.0647324,29.1586206 21.036,28.9097964 L19.4337465,28.9097964 C19.4681127,30.1595728 20.3210704,30.6804072 21.7272676,30.6804072 L21.7272676,30.6804072 Z M26.9903662,30.6227252 L28.6500845,30.6227252 L27.3650141,26.457181 L25.5036056,26.457181 L24.2354366,30.6227252 L25.739662,30.6227252 L26.3334648,28.6728478 L26.3909296,28.6728478 L26.9903662,30.6227252 Z M26.3565634,30.5243265 C26.5757183,30.5243265 26.7486761,30.350715 26.7486761,30.1307318 C26.7486761,29.9226242 26.5757183,29.7490127 26.3565634,29.7490127 C26.1548732,29.7490127 25.9762817,29.9226242 25.9762817,30.1307318 C25.9762817,30.350715 26.1548732,30.5243265 26.3565634,30.5243265 L26.3565634,30.5243265 Z M31.9255775,30.6227252 L33.9486761,30.6227252 L32.3864225,28.3375006 L33.7407887,26.457181 L31.9081127,26.457181 L30.7554366,28.0536147 L30.7554366,26.457181 L29.0844507,26.457181 L29.0844507,30.6227252 L30.7554366,30.6227252 L30.7554366,28.916017 L31.9255775,30.6227252 Z M33.9148732,28.5399531 C33.9148732,29.6913307 34.7221972,30.6804072 36.4337465,30.6804072 C38.1452958,30.6804072 38.9520563,29.6913307 38.9520563,28.5399531 C38.9520563,27.3885754 38.1452958,26.399499 36.4337465,26.399499 C34.7221972,26.399499 33.9148732,27.3885754 33.9148732,28.5399531 L33.9148732,28.5399531 Z M35.6151549,28.5399531 C35.6151549,28.215916 35.880507,27.8743482 36.4337465,27.8743482 C36.9869859,27.8743482 37.2517746,28.215916 37.2517746,28.5399531 C37.2517746,28.916017 36.9869859,29.2049924 36.4337465,29.2049924 C35.880507,29.2049924 35.6151549,28.916017 35.6151549,28.5399531 L35.6151549,28.5399531 Z M41.5486761,30.6227252 C42.7993803,30.6227252 43.5193803,30.3275291 43.5193803,29.3729488 C43.5193803,28.9041413 43.2083944,28.597635 42.8568451,28.4296787 C43.1621972,28.2504121 43.3813521,27.9439059 43.3813521,27.5621868 C43.3813521,26.8389 42.7126197,26.457181 41.7329014,26.457181 L39.5430423,26.457181 L39.5430423,30.6227252 L41.5486761,30.6227252 Z M42.1075493,28.4935813 C42.1075493,28.887176 41.8365634,29.1761514 41.3295211,29.1761514 L41.2140282,29.1761514 L41.2140282,27.9031892 L41.3351549,27.9031892 C41.8252958,27.9031892 42.1075493,28.0943314 42.1075493,28.4935813 L42.1075493,28.4935813 Z" id="Fill-6" fill="#FFFFFF"></path>
            </g>
        </g>
    </g>
</svg>