<?xml version="1.0" encoding="UTF-8"?>
<svg width="536px" height="115px" viewBox="0 0 536 115" version="1.1" xmlns="http://www.w3.org/2000/svg" xmlns:xlink="http://www.w3.org/1999/xlink">
    <!-- Generator: Sketch 41 (35326) - http://www.bohemiancoding.com/sketch -->
    <title>logo</title>
    <desc>Created with Sketch.</desc>
    <defs>
        <polygon id="path-1" points="505.748595 114.431761 505.748595 0.145541155 484.00249 0.145541155 0 0.145541155 1.47070423e-14 114.431761"></polygon>
    </defs>
    <g id="Page-1" stroke="none" stroke-width="1" fill="none" fill-rule="evenodd">
        <g id="Artboard-Copy-3" transform="translate(-842.000000, -57.000000)">
            <g id="logo" transform="translate(842.000000, 57.000000)">
                <g id="Group-3" transform="translate(46.000000, 0.000000)">
                    <mask id="mask-2" fill="white">
                        <use xlink:href="#path-1"></use>
                    </mask>
                    <g id="Clip-2"></g>
                    <path d="M347.681851,2.46426988 C362.591116,2.46426988 374.60923,11.7680295 377.551401,33.8076531 C362.453172,26.8179494 352.52311,15.1487949 347.681851,2.46426988 M345.58435,70.9390283 C345.58435,84.8728012 337.122539,94.0206426 326.49142,94.0206426 C323.345168,94.0206426 321.245778,93.3171088 320.197027,92.6839283 L345.556005,69.919855 C345.571122,70.2545089 345.58435,70.5891629 345.58435,70.9390283 M157.52353,54.1892186 C157.52353,45.9540698 161.790339,34.9770405 171.370817,34.9770405 C173.608152,34.9770405 174.798625,35.3288074 174.798625,35.4695142 C172.708683,39.3294431 165.373098,47.6064236 157.589668,55.6476253 C157.546206,55.1380386 157.52353,54.6455649 157.52353,54.1892186 M41.2180365,111.612791 C38.0717848,111.612791 35.3431437,110.911159 35.3431437,109.50219 C35.3431437,101.88501 62.7372645,78.03141 82.6994286,59.9201672 C80.1805376,93.309503 60.426234,111.612791 41.2180365,111.612791 M489.164917,53.2746246 C488.718962,53.2746246 488.46575,53.3906126 487.976333,54.0485119 C487.065526,55.2445194 482.042861,60.5343333 478.605605,61.2264585 C478.743549,52.8201798 479.163049,46.2202718 479.163049,42.9288743 C479.163049,40.1831909 478.726542,39.6926186 477.417021,39.6926186 C476.506214,39.6926186 474.26699,41.1700397 462.099594,58.1309096 L462.519094,41.9439269 C462.534211,41.3506768 462.239427,40.5368593 460.980926,40.5368593 C459.792342,40.5368593 458.182368,42.3660472 445.805222,58.2716163 L446.154806,43.0695811 C446.200157,41.0293329 445.438632,40.6072126 444.544832,40.6072126 C444.195248,40.6072126 443.800313,40.7745396 443.356248,41.3107465 C430.6692,58.0035129 420.977233,67.7712246 417.269758,67.7712246 C415.451924,67.7712246 418.318509,53.9477354 418.318509,49.8957608 C418.318509,49.2625803 417.968925,48.9811668 416.920175,48.9811668 C415.591757,48.9811668 413.492367,53.2746246 408.807947,59.678684 C403.632221,66.6455705 398.246746,70.9390283 395.869578,71.3611486 C396.219161,67.6305178 403.562305,53.9781585 414.962507,42.6474608 C415.451924,42.1549871 415.591757,41.7328668 415.591757,41.4514532 C415.591757,40.6072126 414.750867,40.4665059 413.911867,40.4665059 C412.793199,40.4665059 411.674532,40.5368593 410.555865,40.5368593 C399.342737,40.5368593 389.567626,38.6373179 381.217304,35.3687377 C379.622447,21.8342678 373.184441,0 347.192434,0 C346.00385,0 344.955099,0.353668363 344.955099,1.33861574 C344.955099,3.55379661 352.623261,25.8311006 377.893426,36.838553 C378.123962,39.3712748 378.244899,42.0561121 378.244899,44.9006705 C378.244899,61.4375186 375.727898,71.2185404 373.628507,71.2185404 C371.041589,71.2185404 369.014004,55.3148728 369.151948,47.6444525 C369.151948,46.9409186 368.802365,46.5187983 368.384754,46.5187983 C367.753614,46.5187983 367.19428,46.8705652 366.914614,47.1519788 C359.596035,53.860269 353.348883,59.5227657 348.016317,64.3220074 C346.104001,58.1784456 341.423361,54.7254255 335.932065,52.6414442 C340.998192,49.7607583 347.402184,42.8585209 347.402184,37.3690555 C347.402184,34.6956269 345.865906,32.9348909 342.226458,32.9348909 C330.967979,32.9348909 313.063634,52.2174224 306.98088,59.8193908 C306.98088,56.9330006 307.398491,42.6474608 307.398491,41.8735735 C307.398491,40.8886262 306.888288,40.4665059 306.068184,40.4665059 C305.790407,40.4665059 305.440823,40.6072126 305.229183,40.9589796 C304.601823,41.8032202 293.760954,60.8043382 290.404952,60.8043382 L290.404952,42.5771074 C290.404952,41.3810999 290.055369,40.6072126 289.004729,40.6072126 L269.142715,40.6072126 C268.793132,40.6072126 268.233798,40.8182728 268.233798,41.4514532 C268.233798,42.0846337 268.443548,42.3660472 268.793132,42.7178142 C270.962439,44.9710239 271.449967,48.0665728 271.449967,51.0917683 C271.449967,57.4692075 269.002882,61.7189321 267.113241,61.7189321 C265.64688,61.7189321 262.988156,58.6500035 262.988156,50.3178811 C262.988156,45.1098292 263.898963,42.2253405 263.898963,41.4514532 C263.898963,40.677566 263.687323,40.1147389 262.918239,40.1147389 C262.638572,40.1147389 262.358905,40.1850923 261.240238,40.5368593 L231.576659,49.6713905 L231.72594,42.6474608 C231.759954,41.0996863 231.25353,40.6072126 230.117856,40.6072126 C229.768273,40.6072126 229.488606,40.677566 228.929272,41.2403931 C226.062687,44.2655886 217.668903,56.1591134 212.774734,60.593278 L212.833313,52.6414442 L213.473901,52.6414442 C214.242985,52.6414442 215.081985,52.5007374 215.081985,51.5861434 C215.081985,50.8807081 214.452735,50.5289412 213.683651,50.5289412 L212.84843,50.5289412 L212.912678,41.9439269 C212.918347,41.3107465 212.523412,40.677566 211.58615,40.677566 C210.724474,40.677566 210.252064,41.3107465 210.255843,41.9439269 L210.318201,50.5289412 L198.59487,50.5289412 L198.715807,42.0142803 C198.715807,41.59216 198.628884,40.677566 197.317473,40.677566 C196.897973,40.677566 196.618306,40.8182728 196.128889,41.3810999 C183.959603,54.1188652 166.686398,64.6034209 161.510672,64.6034209 C159.913926,64.6034209 158.662984,61.6809033 158.014837,58.5682414 C167.003858,49.5021621 175.371187,40.3581236 177.315627,35.8212811 C177.385544,35.4695142 177.385544,35.1177472 177.385544,35.0473939 C177.385544,34.6728096 176.805424,32.6553788 171.510651,32.6553788 C161.644837,32.6553788 154.587029,42.2956938 154.587029,54.4002788 C154.587029,55.740796 154.724973,57.0642001 154.970626,58.3267582 C150.828533,62.5251439 146.711006,66.5143709 143.32666,69.6004126 L143.396577,62.6354276 C143.415473,60.6636314 143.126358,60.2415111 142.138076,60.2415111 L136.263183,60.2415111 C136.263183,56.5298947 136.610877,47.6786784 136.610877,45.1801826 C136.610877,41.6206817 136.159253,40.7479194 135.074599,40.7479194 C134.793043,40.7479194 134.373542,40.8182728 133.814209,41.7328668 C132.625625,43.6324081 124.723148,55.5259329 118.149088,59.8897442 L118.428754,41.9439269 C118.441982,41.1700397 118.054606,40.7479194 117.310087,40.7479194 C116.82067,40.7479194 116.61092,41.0293329 116.331253,41.5218066 C114.303669,45.250536 104.651384,58.4123231 100.594326,60.1008043 C100.594326,57.2847675 101.013826,50.0364675 101.013826,42.2253405 C101.013826,41.8032202 100.664242,41.2403931 99.7553253,41.2403931 C99.4057418,41.2403931 99.0750547,41.2898306 98.8464082,41.5218066 C95.0217754,45.4425817 90.5773406,49.6504746 85.8324528,53.9971729 C85.8343425,53.826043 85.8381218,53.6568146 85.8381218,53.4856848 C85.8381218,51.1640231 85.6982884,48.7701066 85.6283716,46.9409186 C85.6283716,45.8152645 85.069038,45.5319495 84.2300375,45.5319495 C83.1113703,45.5319495 80.3128124,48.4886931 76.8150875,51.4435352 C73.2493356,54.4002788 69.1922771,57.7791426 67.3744427,58.7621886 C66.6204761,56.4139067 66.3937192,48.0570656 65.8362752,42.1549871 C65.7663585,41.0977849 65.4507885,40.7479194 64.2962181,40.7479194 C63.529024,40.7479194 59.7516323,46.3780916 46.6734291,55.8073465 C41.6375367,59.3972705 36.6715611,62.8445863 28.9089172,67.3491043 C28.4195002,67.6305178 28,68.0526381 28,68.6154652 C28,68.8265254 28.1398334,69.3893524 28.9089172,69.3893524 C29.188584,69.3893524 29.5381675,69.3189991 29.9576677,69.1782923 C31.2841955,68.68772 54.0392485,54.5866202 63.2493571,44.6877089 C64.0845783,57.0946232 64.7497318,61.5782254 66.605359,61.5782254 C68.3532766,61.5782254 78.984395,52.6414442 82.8997305,48.9108134 C82.9715369,50.1771743 82.9715369,51.3750833 82.9715369,52.6414442 C82.9715369,54.010483 82.939413,55.3567045 82.886503,56.6820101 C60.2448285,77.2042824 32.5464755,100.097654 32.5464755,110.277979 C32.5464755,112.881054 36.1821441,114.288121 40.5188695,114.288121 C62.4235842,114.288121 84.3944363,93.5738035 85.7700947,57.1231449 C90.7190636,52.5996124 95.0501201,48.5362292 98.1472411,45.3227908 L98.2171578,61.2968118 C98.2171578,62.422466 98.9163249,62.8445863 99.6854086,62.8445863 C102.389484,62.8445863 109.252659,55.3091684 115.56217,46.7298585 L115.702003,61.4375186 C115.702003,62.1410525 115.98167,62.7742329 116.890587,62.7742329 C121.017562,62.7742329 130.737874,49.8254074 133.814209,45.1801826 L133.814209,60.8746915 C133.814209,62.2114058 134.725016,62.6354276 135.70385,62.6354276 C138.351236,62.6354276 140.921147,62.5403554 140.921147,62.5403554 L140.949492,73.0496298 C140.949492,74.0345772 142.068159,74.1049306 142.90716,73.3310434 C146.726124,69.6840761 151.210241,65.3620966 155.666014,60.9241291 C156.913176,64.5349689 159.097601,67.1380442 161.440756,67.1380442 C165.006507,67.1380442 179.063544,61.2968118 195.989056,44.7599637 L195.989056,50.5289412 L195.080139,50.5289412 C193.889665,50.5289412 193.332221,50.8807081 193.332221,51.5861434 C193.332221,52.2877758 193.889665,52.6414442 195.080139,52.6414442 L195.989056,52.6414442 L195.989056,61.5782254 C195.989056,62.6354276 196.618306,62.9852931 197.17764,62.9852931 C197.876807,62.9852931 198.436141,62.6354276 198.436141,61.5782254 L198.564636,52.6414442 L210.333318,52.6414442 L210.395676,61.0857517 C210.395676,61.0857517 210.255843,63.0556464 211.863927,63.0556464 C212.355234,63.0556464 213.052511,62.9149397 213.963318,62.2114058 C217.249403,59.6083306 226.202521,47.5037457 228.929272,44.335942 L228.929272,50.4871095 L228.789439,50.5289412 C228.160188,50.5992946 227.530938,51.0233163 227.530938,51.7268502 C227.530938,52.2174224 227.670772,52.5710908 228.439855,53.2746246 C228.477648,53.3069492 228.647716,53.4248386 228.929272,53.6092786 L228.929272,62.2114058 C228.929272,62.6354276 229.069106,63.4074134 230.047939,63.4074134 C230.88694,63.4074134 231.30833,62.7038795 231.30833,62.1410525 L231.455722,55.2407165 C239.050188,60.0931985 258.581514,72.3384902 262.149155,74.1049306 C262.149155,74.1049306 262.498739,74.3159908 262.918239,74.3159908 C263.547489,74.3159908 263.898963,73.9642238 263.898963,73.4717502 C263.898963,73.1199832 263.827156,72.7682163 263.547489,72.5571562 C259.121951,69.6099198 242.028261,58.1233038 231.514301,52.5197518 L231.529418,51.8219223 L261.380071,42.8585209 C260.750821,44.2655886 259.981737,48.2072795 259.981737,50.5992946 C259.981737,58.3419697 263.120431,63.7591803 267.113241,63.7591803 C270.06486,63.7591803 274.248524,59.3269171 274.248524,51.1640231 C274.248524,47.7148059 273.339607,45.1098292 271.449967,42.7881675 L287.396644,42.7881675 L287.886061,60.3118645 C287.955978,62.422466 288.655145,63.4074134 289.913646,63.4074134 C294.669871,63.4074134 302.222765,49.5439938 304.601823,46.0244232 L304.601823,61.0857517 C304.601823,62.7742329 305.161156,63.2667066 305.72049,63.2667066 C306.068184,63.2667066 306.699324,63.1963532 307.188741,62.6354276 C311.944966,57.4273757 330.898062,35.3991608 341.946791,35.3991608 C343.626682,35.3991608 344.046182,36.6655217 344.046182,37.7911758 C344.046182,43.421348 336.772955,49.8957608 333.415064,51.7268502 C332.506146,52.2174224 332.01673,52.5007374 332.01673,53.0635645 C332.01673,53.6263916 332.296396,53.9781585 332.925647,54.1892186 C332.925647,54.1892186 343.124037,55.8967143 345.208311,66.8395176 C319.390151,89.9743723 317.120692,90.8547403 317.120692,93.3171088 C317.120692,94.653823 321.036028,96.6256192 326.49142,96.6256192 C337.825485,96.6256192 348.942241,87.1944629 348.942241,70.8686749 C348.942241,69.537665 348.845869,68.2941214 348.664464,67.1304384 L366.844697,50.8122562 C366.495113,58.9028953 367.82542,73.8216156 373.628507,73.8216156 C379.138699,73.8216156 381.742624,61.7189321 381.742624,44.7599637 C381.742624,43.4878985 381.727507,41.1871527 381.50264,38.2817481 C389.242608,41.1301094 398.471613,42.9288743 409.437198,42.9288743 L411.464782,42.9288743 C399.784913,52.7821509 393.07102,66.7159238 393.07102,71.9239757 C393.07102,72.9089231 393.560437,73.8216156 395.100494,73.8216156 C401.462914,73.8216156 410.346115,62.3521126 414.750867,55.1038126 C414.333257,57.7791426 413.983673,61.7892855 413.983673,65.3088562 C413.983673,70.1632397 415.591757,70.3742998 416.360841,70.3742998 C422.273527,70.3742998 434.327545,56.9158876 443.216414,44.6173555 C443.216414,47.9543877 443.356248,55.6704426 443.356248,61.7189321 C443.356248,62.7038795 443.845665,63.0556464 444.474915,63.0556464 C444.754582,63.0556464 445.034249,62.9852931 445.383832,62.5631728 C449.781026,57.2258228 453.998704,51.1488116 459.582592,45.0394758 L459.652509,61.7892855 C459.652509,62.3521126 459.932176,63.0556464 460.701259,63.0556464 C461.190676,63.0556464 461.468454,62.9149397 462.099594,62.0706991 C466.190666,56.0678441 471.719754,48.7225705 476.226547,43.1399345 C476.226547,47.1215557 476.156631,58.4389433 476.156631,62.0706991 C476.156631,63.1259998 476.785881,63.6184735 477.624881,63.6184735 C482.770373,63.6184735 488.957056,55.4536781 489.444584,54.6113389 C490.126744,53.5313194 489.350102,53.2746246 489.164917,53.2746246" id="Fill-1" fill="#FFFFFF" mask="url(#mask-2)"></path>
                </g>
                <path d="M68.7477732,33.4367624 C68.0486062,33.4367624 67.6990227,33.8588827 67.4892725,34.2106497 C64.7625211,38.8558744 41.9621167,71.5778037 38.8139753,71.5778037 C38.8139753,71.5778037 37.7652247,71.1518806 37.2758078,60.9525413 C37.2040015,59.7755482 36.7863909,59.2640601 35.807557,59.2640601 C35.5278902,59.2640601 35.0724868,59.3134976 34.4791396,59.6861804 C29.023747,63.1353977 17.9032116,70.1003827 11.3291517,71.8611187 C11.3291517,69.8893225 22.7690363,54.0921357 35.0384732,39.5594083 C46.3404141,26.220787 58.6778781,13.0285768 58.6778781,10.0718332 C58.6778781,8.94617905 58.2564882,7.82052491 56.648404,7.82052491 C52.3135683,7.82052491 26.9961625,12.7471632 1.32917325,33.718176 C0.350339381,34.4920632 0.00075585627,34.9141835 0.00075585627,35.6177173 C0.00075585627,36.110191 0.420256086,36.5323113 0.839756316,36.5323113 C1.18933984,36.5323113 1.46900666,36.3916046 1.67875678,36.2508978 C27.4855795,15.5612986 53.6419857,10.0718332 56.2289038,10.0718332 C55.1083468,12.4011006 43.7157032,24.9049886 31.7504985,38.6448143 C20.2860485,51.8598418 8.74223362,68.3415481 8.74223362,72.4942992 C8.74223362,73.8310135 9.65115078,74.1827804 11.1194016,74.1827804 C14.8268766,74.1827804 30.2822477,65.1756458 34.4092229,62.2189022 C34.9685565,70.0319307 35.807557,74.4641939 38.3245584,74.4641939 C42.6612837,74.4641939 58.1884611,52.2268203 67.4892725,38.0819872 L67.4892725,95.5055601 C67.4892725,96.4201541 67.9087728,96.9126277 68.6079398,96.9126277 C69.3071069,96.9126277 69.9363572,96.4201541 69.9363572,95.3648533 L70.4257742,35.3363038 C70.4390016,33.8588827 69.537643,33.4367624 68.7477732,33.4367624" id="Fill-4" fill="#FFFFFF"></path>
            </g>
        </g>
    </g>
</svg>