<?xml version="1.0" encoding="UTF-8"?>
<svg width="54px" height="26px" viewBox="0 0 54 26" version="1.1" xmlns="http://www.w3.org/2000/svg" xmlns:xlink="http://www.w3.org/1999/xlink">
    <!-- Generator: Sketch 41 (35326) - http://www.bohemiancoding.com/sketch -->
    <title>венец</title>
    <desc>Created with Sketch.</desc>
    <defs></defs>
    <g id="Page-1" stroke="none" stroke-width="1" fill="none" fill-rule="evenodd">
        <g id="Artboard-Copy-3" transform="translate(-1212.000000, -239.000000)" fill="#FEFEFE">
            <path d="M1265.97601,265 L1265.97601,262.53512 L1265.97601,260.070767 L1264.61032,260.070767 L1264.61032,239 L1262.15931,239 L1262.15931,260.070767 L1259.57703,260.070767 L1259.57703,239 L1257.1255,239 L1257.1255,260.070767 L1257.1255,262.53512 L1259.57703,262.53512 L1262.15931,262.53512 L1263.52448,262.53512 L1263.52448,265 L1265.97601,265 Z M1248.07445,262.53512 L1253.10774,262.53512 L1253.10774,260.07024 L1248.07445,260.07024 L1248.07445,249.825944 L1253.10774,249.825944 L1253.10774,247.361592 L1248.07445,247.361592 L1248.07445,241.46488 L1253.10774,241.46488 L1253.10774,239 L1248.07445,239 L1245.62292,239 L1245.62292,241.46488 L1245.62292,247.361592 L1245.62292,249.825944 L1245.62292,260.07024 L1245.62292,262.53512 L1248.07445,262.53512 Z M1240.03896,262.53512 L1242.48997,262.53512 L1242.48997,249.825944 L1242.48997,247.361592 L1242.48997,239 L1240.03896,239 L1240.03896,247.361592 L1237.45669,247.361592 L1237.45669,239 L1235.00516,239 L1235.00516,247.361592 L1235.00516,249.825944 L1235.00516,262.53512 L1237.45669,262.53512 L1237.45669,249.825944 L1240.03896,249.825944 L1240.03896,262.53512 Z M1225.95411,262.53512 L1230.98739,262.53512 L1230.98739,260.07024 L1225.95411,260.07024 L1225.95411,249.825944 L1230.98739,249.825944 L1230.98739,247.361592 L1225.95411,247.361592 L1225.95411,241.46488 L1230.98739,241.46488 L1230.98739,239 L1225.95411,239 L1223.50258,239 L1223.50258,241.46488 L1223.50258,247.361592 L1223.50258,249.825944 L1223.50258,260.07024 L1223.50258,262.53512 L1225.95411,262.53512 Z M1219.69904,260.070767 L1219.69904,249.830166 L1219.69904,249.826472 C1219.69904,249.145595 1219.15035,248.594032 1218.47354,248.594032 C1219.15035,248.594032 1219.69904,248.042469 1219.69904,247.361592 L1219.69904,247.357897 L1219.69904,241.46488 C1219.69904,240.104182 1218.60113,239.000528 1217.24751,239.000528 L1217.24751,239 L1214.45101,239 L1212,239 L1212,241.46488 L1212,247.361592 L1212,249.826472 L1212,260.070767 L1212,262.53512 L1214.45101,262.53512 L1217.24751,262.53512 C1218.60166,262.53512 1219.69904,261.431466 1219.69904,260.070767 Z M1217.24751,247.172023 L1214.45101,247.172023 L1214.45101,241.275311 L1217.24698,241.275311 L1217.24751,241.275311 L1217.24751,247.172023 Z M1214.45101,259.881198 L1217.24751,259.881198 L1217.24751,249.636903 L1214.45101,249.636903 L1214.45101,259.881198 Z" id="венец"></path>
        </g>
    </g>
</svg>