<svg id="Слой_1" data-name="Слой 1" xmlns="http://www.w3.org/2000/svg" viewBox="0 0 283.46 283.46"><defs><style>.cls-1{fill:#fff;}</style></defs><title>Монтажная область 2</title><path class="cls-1" d="M13.81,254.3a5,5,0,0,1-5-5c0-13.35,2.13-60.08,29.59-101a134.12,134.12,0,0,1,48.21-44c21.18-11.37,46.22-17.45,74.49-18.08v-46a5,5,0,0,1,8-4l103.82,78.35a5,5,0,0,1,.06,7.94L169.17,203.26a5,5,0,0,1-8.07-3.95V151.49c-40.37.89-77.14,12.54-104,33-24,18.32-38.31,42.53-38.31,64.76A5,5,0,0,1,13.81,254.3Z"/></svg>